<svg width="1207" height="340" viewBox="0 0 1207 340" fill="none" xmlns="http://www.w3.org/2000/svg">
<path fill-rule="evenodd" clip-rule="evenodd" d="M1104.76 256.047H1198.89V241.92H1104.76V256.047Z" fill="#EB6725"/>
<path fill-rule="evenodd" clip-rule="evenodd" d="M1191.67 256.048H1206.1V145.745H1191.67V256.048Z" fill="#EB6725"/>
<path fill-rule="evenodd" clip-rule="evenodd" d="M0 249.914H14.4238V157.723H0V249.914Z" fill="#400199"/>
<path fill-rule="evenodd" clip-rule="evenodd" d="M0 256.978H112.615V242.85H0V256.978Z" fill="#400199"/>
<path fill-rule="evenodd" clip-rule="evenodd" d="M86.0649 189.641C84.2884 190.511 82.607 190.946 81.0203 190.946H80.4976C81.4167 190.698 82.3296 190.465 83.2334 190.247C84.1383 190.03 85.0812 189.827 86.0649 189.641ZM81.3068 161.768C82.3528 161.768 83.3835 161.893 84.3994 162.142C83.1626 162.266 81.9321 162.453 80.7117 162.701C79.4902 162.95 78.2613 163.074 77.0234 163.074C76.6745 163.074 76.3881 163.105 76.1671 163.167C75.9451 163.23 75.675 163.261 75.3579 163.261C76.1196 162.825 76.9922 162.468 77.9758 162.188C78.9584 161.908 80.0689 161.768 81.3068 161.768ZM73.5978 187.031C72.2653 185.446 71.2658 183.575 70.5999 181.415C69.9333 179.255 69.6004 177.056 69.6004 174.819C69.6004 171.992 70.2188 169.476 71.4561 167.269V167.455C71.5824 170.935 71.8446 174.253 72.241 177.406C72.6374 180.561 73.0894 183.768 73.5978 187.031ZM81.3068 159.532C78.8955 159.532 76.8098 159.967 75.0492 160.837C73.2881 161.707 71.8367 162.857 70.6945 164.286C69.5528 165.715 68.7113 167.347 68.1727 169.18C67.6331 171.014 67.363 172.893 67.363 174.819C67.363 177.056 67.6806 179.27 68.3159 181.461C68.9497 183.652 69.8614 185.61 71.0518 187.334C72.241 189.059 73.6766 190.457 75.3579 191.529C77.0387 192.601 78.9272 193.137 81.0203 193.137C83.0827 193.137 85.272 192.554 87.5882 191.389C89.9032 190.224 92.315 188.196 94.8209 185.307C93.3933 185.773 91.8943 186.185 90.324 186.542C88.7541 186.899 87.2076 187.241 85.6838 187.567C84.1615 187.893 82.7106 188.219 81.3301 188.546C79.95 188.872 78.7364 189.238 77.6894 189.641C77.0546 189.641 76.5635 189.284 76.2147 188.569C75.5165 184.934 74.9689 181.4 74.5725 177.966C74.176 174.532 73.851 170.998 73.5978 167.362C73.5978 166.865 73.7321 166.493 74.0022 166.244C74.2707 165.995 74.6206 165.809 75.0492 165.684C75.4774 165.56 75.9684 165.474 76.5234 165.428C77.0789 165.381 77.6259 165.296 78.1656 165.171C83.4633 164.488 88.7933 163.594 94.1549 162.491C99.5155 161.389 104.973 160.184 110.525 158.879C110.588 158.817 110.778 158.786 111.096 158.786C112.143 158.786 113.142 159.548 114.094 161.07C115.076 162.654 115.918 164.472 116.615 166.523C117.408 168.698 118.011 170.889 118.424 173.095C118.646 174.214 118.813 175.239 118.924 176.171C119.035 177.103 119.09 177.927 119.09 178.641C119.09 182.37 118.702 185.982 117.924 189.478C117.147 192.974 116.021 196.268 114.546 199.359C113.071 202.451 111.262 205.287 109.12 207.865C106.979 210.445 104.544 212.659 101.816 214.507C99.0869 216.356 96.0979 217.793 92.8457 218.818C89.5935 219.844 86.096 220.357 82.3528 220.357C77.0234 220.357 71.7415 219.393 66.5072 217.467C61.3041 215.541 56.7348 212.899 52.8018 209.543C48.8048 206.126 45.5849 202.086 43.1419 197.425C40.6994 192.702 39.4779 187.59 39.4779 182.091C39.4779 178.082 39.9695 174.113 40.9531 170.182C41.9362 166.251 43.3327 162.515 45.1404 158.972C46.9491 155.43 49.1214 152.144 51.6606 149.114C54.1977 146.085 57.0292 143.467 60.1545 141.261C63.2783 139.055 66.6568 137.322 70.2901 136.064C73.9223 134.805 77.7205 134.176 81.6868 134.176C84.9544 134.176 88.2457 134.682 91.5613 135.691C94.8754 136.701 97.9611 138.154 100.817 140.049C103.672 141.913 106.13 144.174 108.193 146.831C110.255 149.487 111.682 152.493 112.476 155.849C112.476 156.72 112.126 157.154 111.429 157.154C109.461 157.28 107.455 157.544 105.409 157.947C103.363 158.351 101.348 158.77 99.366 159.205C97.3828 159.641 95.4948 160.029 93.703 160.371C91.9096 160.713 90.3007 160.883 88.8731 160.883C85.7631 159.982 83.2413 159.532 81.3068 159.532ZM114.616 155.663C114.109 153.302 113.261 151.072 112.071 148.975C110.881 146.877 109.453 144.951 107.788 143.195C106.123 141.44 104.267 139.87 102.221 138.487C100.174 137.105 98.0245 135.932 95.7729 134.968C93.5196 134.006 91.2114 133.267 88.8488 132.754C86.4856 132.242 84.1615 131.986 81.8776 131.986H81.6868C75.3732 131.986 69.5205 133.415 64.1277 136.273C58.7338 139.133 54.0391 142.908 50.0417 147.6C46.0447 152.26 42.904 157.606 40.6201 163.633C38.3674 169.692 37.2416 175.845 37.2416 182.091C37.2416 187.933 38.526 193.323 41.0958 198.264C43.6969 203.267 47.0913 207.539 51.2795 211.082C55.4979 214.686 60.3046 217.483 65.6975 219.471C71.0586 221.522 76.6111 222.547 82.3528 222.547C85.3043 222.547 88.1268 222.236 90.824 221.615C93.5196 220.993 96.0503 220.116 98.414 218.981C100.777 217.847 102.982 216.472 105.028 214.857C107.075 213.242 108.938 211.423 110.619 209.403C114.046 205.364 116.671 200.703 118.495 195.421C120.319 190.139 121.232 184.545 121.232 178.641C121.232 175.783 120.827 173.08 120.018 170.531C119.209 167.984 118.313 165.435 117.329 162.887L116.188 159.858C115.87 159.454 115.552 159.081 115.236 158.739C114.918 158.398 114.585 158.072 114.237 157.76C114.49 157.108 114.616 156.409 114.616 155.663ZM116.378 155.243V156.316C116.378 156.627 116.345 156.906 116.282 157.154C116.948 157.807 117.44 158.413 117.758 158.972L118.994 162.421V162.328C119.502 163.664 119.979 164.993 120.423 166.313C120.867 167.635 121.311 168.963 121.755 170.298C122.643 172.908 123.088 175.69 123.088 178.641C123.088 182.712 122.651 186.666 121.778 190.504C120.906 194.341 119.653 197.945 118.02 201.317C116.385 204.689 114.379 207.789 112 210.616C109.62 213.443 106.915 215.867 103.886 217.886C100.856 219.906 97.5403 221.475 93.9403 222.594C90.3398 223.713 86.4766 224.272 82.3528 224.272C76.4837 224.272 70.7256 223.215 65.0791 221.102C59.432 218.989 54.4197 216.069 50.0417 212.34C45.6324 208.549 42.1107 204.09 39.4779 198.963C36.813 193.805 35.4805 188.181 35.4805 182.091C35.4805 177.741 36.0201 173.437 37.0984 169.18C38.1766 164.923 39.6999 160.876 41.6672 157.038C43.634 153.201 46.0135 149.635 48.8048 146.341C51.5961 143.048 54.7051 140.205 58.1317 137.812C61.5584 135.42 65.2535 133.547 69.2198 132.195C73.185 130.844 77.341 130.168 81.6868 130.168H81.8776C84.2884 130.168 86.7467 130.44 89.2536 130.983C91.759 131.527 94.1941 132.305 96.5578 133.314C98.9204 134.324 101.181 135.567 103.339 137.043C105.496 138.519 107.447 140.181 109.192 142.03C110.937 143.879 112.428 145.914 113.665 148.136C114.903 150.358 115.807 152.727 116.378 155.243Z" fill="#EB6725"/>
<path fill-rule="evenodd" clip-rule="evenodd" d="M171.007 190.76C171.704 190.76 172.529 190.558 173.481 190.154C174.497 189.719 175.004 189.067 175.004 188.197C173.672 188.383 172.363 188.585 171.078 188.802C169.793 189.02 168.485 189.192 167.153 189.315C167.596 189.844 168.175 190.217 168.889 190.434C169.603 190.652 170.309 190.76 171.007 190.76ZM154.97 162.421C156.238 162.421 157.524 162.228 158.825 161.839C160.125 161.451 161.282 160.891 162.298 160.161C163.313 159.431 164.146 158.561 164.797 157.551C165.446 156.542 165.772 155.4 165.772 154.125C165.772 152.82 165.201 151.904 164.059 151.375C162.884 150.847 161.759 150.583 160.68 150.583C159.379 150.583 158.047 150.809 156.683 151.259C155.319 151.709 154.082 152.315 152.971 153.076C151.861 153.838 150.941 154.723 150.211 155.733C149.481 156.743 149.117 157.823 149.117 158.972C149.117 159.594 149.275 160.122 149.592 160.557C149.909 160.993 150.347 161.35 150.902 161.629C151.456 161.909 152.083 162.111 152.782 162.235C153.479 162.36 154.208 162.421 154.97 162.421ZM154.97 164.239C153.986 164.239 153.035 164.138 152.115 163.937C151.195 163.735 150.378 163.416 149.665 162.981C148.951 162.546 148.371 162.002 147.927 161.35C147.483 160.697 147.261 159.905 147.261 158.972C147.261 157.606 147.69 156.308 148.545 155.08C149.403 153.854 150.497 152.773 151.83 151.841C153.162 150.909 154.614 150.163 156.183 149.604C157.754 149.044 159.253 148.765 160.68 148.765C161.473 148.765 162.275 148.858 163.083 149.044C163.893 149.231 164.63 149.534 165.296 149.953C165.962 150.373 166.502 150.925 166.914 151.608C167.326 152.292 167.533 153.131 167.533 154.125C167.533 155.679 167.159 157.077 166.414 158.319C165.669 159.563 164.693 160.627 163.489 161.513C162.282 162.398 160.934 163.074 159.444 163.54C157.951 164.006 156.461 164.239 154.97 164.239ZM154.97 166.43C156.746 166.43 158.515 166.143 160.276 165.568C162.036 164.993 163.623 164.169 165.034 163.097C166.445 162.026 167.588 160.728 168.461 159.205C169.333 157.683 169.77 155.99 169.77 154.125C169.77 152.727 169.491 151.546 168.937 150.583C168.381 149.62 167.668 148.843 166.795 148.252C165.923 147.662 164.946 147.235 163.869 146.97C162.79 146.707 161.727 146.574 160.68 146.574C158.999 146.574 157.246 146.908 155.422 147.576C153.598 148.245 151.924 149.154 150.402 150.303C148.879 151.453 147.618 152.773 146.619 154.265C145.62 155.756 145.12 157.325 145.12 158.972C145.12 160.277 145.397 161.404 145.953 162.352C146.507 163.3 147.253 164.076 148.189 164.682C149.124 165.288 150.18 165.731 151.353 166.01C152.527 166.29 153.733 166.43 154.97 166.43ZM171.007 194.768C172.529 194.768 173.988 194.396 175.385 193.65C176.781 192.904 177.859 191.692 178.621 190.014C179.032 188.989 179.842 188.476 181.048 188.476C181.586 188.476 182.078 188.6 182.522 188.849C183.76 188.725 185.203 188.554 186.853 188.336C188.502 188.119 190.208 187.91 191.968 187.707C193.729 187.505 195.482 187.327 197.227 187.171C198.971 187.016 200.573 186.938 202.034 186.938C204.761 186.938 206.458 187.295 207.125 188.01C207.823 188.694 208.172 189.518 208.172 190.48V192.298C208.172 195.778 207.536 198.901 206.268 201.666C204.999 204.432 203.286 206.879 201.129 209.007C198.971 211.136 196.449 212.946 193.562 214.437C190.675 215.929 187.63 217.156 184.426 218.12C181.221 219.082 177.931 219.789 174.552 220.24C171.173 220.69 167.913 220.916 164.773 220.916C160.585 220.916 156.77 220.387 153.329 219.331C149.886 218.275 146.786 216.806 144.025 214.927C141.265 213.047 138.862 210.81 136.816 208.215C134.769 205.621 133.072 202.793 131.723 199.732C130.376 196.672 129.361 193.425 128.679 189.991C127.996 186.558 127.655 183.07 127.655 179.527C127.655 174.213 128.385 168.9 129.845 163.587C131.335 158.149 133.493 153.317 136.316 149.091C139.172 144.803 142.741 141.308 147.023 138.604C151.337 135.901 156.318 134.549 161.965 134.549C166.154 134.549 170.166 135.031 174.005 135.994C177.843 136.958 181.42 138.333 184.735 140.119C188.05 141.906 191.056 144.057 193.753 146.574C196.449 149.091 198.757 151.896 200.677 154.988C202.596 158.079 204.08 161.419 205.126 165.008C206.173 168.597 206.697 172.349 206.697 176.264C206.697 177.352 206.252 178.129 205.364 178.595C204.507 179.061 203.619 179.294 202.7 179.294C199.273 179.885 195.894 180.475 192.563 181.065C189.232 181.656 185.901 182.262 182.57 182.883C175.908 184.157 169.167 185.136 162.346 185.819C162.282 186.068 162.251 186.503 162.251 187.124C162.251 188.306 162.505 189.37 163.012 190.317C163.52 191.265 164.186 192.065 165.011 192.717C165.836 193.37 166.772 193.875 167.819 194.232C168.865 194.59 169.927 194.768 171.007 194.768ZM171.007 192.577C169.42 192.577 167.992 192.158 166.724 191.319C165.423 190.418 164.678 189.253 164.488 187.823C165.09 187.793 166.058 187.676 167.39 187.474C168.723 187.272 170.293 187.024 172.101 186.728C173.909 186.433 175.876 186.107 178.002 185.749C180.127 185.393 182.268 185.035 184.426 184.678C186.583 184.321 188.7 183.963 190.779 183.605C192.856 183.248 194.736 182.922 196.418 182.627C198.099 182.332 199.535 182.091 200.724 181.904C201.915 181.718 202.7 181.594 203.081 181.531C203.747 181.438 204.428 181.283 205.126 181.065C205.824 180.848 206.45 180.545 207.006 180.156C207.561 179.768 208.02 179.255 208.386 178.618C208.75 177.981 208.933 177.197 208.933 176.264C208.933 170.019 207.727 164.239 205.317 158.926C202.937 153.55 199.622 148.905 195.371 144.99C191.12 141.074 186.155 137.998 180.477 135.761C174.798 133.493 168.627 132.358 161.965 132.358C156.001 132.358 150.719 133.773 146.119 136.6C141.582 139.428 137.76 143.11 134.651 147.647C131.636 152.152 129.336 157.201 127.751 162.794C126.196 168.326 125.419 173.903 125.419 179.527C125.419 185.12 126.228 190.543 127.846 195.793C129.464 201.014 131.89 205.66 135.127 209.73C138.394 213.769 142.503 217 147.452 219.425C152.368 221.879 158.142 223.107 164.773 223.107C168.104 223.107 171.537 222.866 175.075 222.384C178.613 221.902 182.071 221.141 185.449 220.1C188.828 219.059 192.031 217.73 195.061 216.115C198.091 214.5 200.74 212.55 203.008 210.266C205.277 207.982 207.078 205.349 208.41 202.366C209.743 199.383 210.409 196.027 210.409 192.298V190.387C210.409 189.641 210.313 188.927 210.123 188.243C209.932 187.56 209.544 186.961 208.957 186.449C208.369 185.936 207.521 185.524 206.412 185.213C205.3 184.903 203.841 184.747 202.034 184.747C200.541 184.747 198.884 184.81 197.06 184.933C195.236 185.058 193.427 185.206 191.635 185.376C189.843 185.547 188.154 185.742 186.567 185.959C184.981 186.176 183.665 186.378 182.618 186.565C182.268 186.442 181.983 186.378 181.762 186.378H181.048C178.985 186.378 177.495 187.295 176.574 189.128C176.067 190.34 175.29 191.218 174.243 191.762C173.196 192.306 172.117 192.577 171.007 192.577ZM210.694 176.264C210.694 178.346 209.996 179.931 208.6 181.019C207.203 182.106 205.729 182.806 204.174 183.116C205.918 183.24 207.315 183.52 208.362 183.955C209.41 184.39 210.218 184.918 210.789 185.54C211.36 186.161 211.733 186.868 211.908 187.66C212.081 188.452 212.169 189.268 212.169 190.107V192.298C212.169 196.245 211.479 199.795 210.099 202.948C208.719 206.102 206.855 208.883 204.507 211.291C202.16 213.7 199.423 215.766 196.299 217.49C193.174 219.215 189.851 220.628 186.33 221.732C182.809 222.834 179.199 223.643 175.504 224.156C171.808 224.668 168.23 224.924 164.773 224.924H164.678C160.078 224.924 155.866 224.341 152.043 223.177C148.22 222.011 144.794 220.396 141.764 218.329C138.735 216.262 136.085 213.808 133.818 210.965C131.55 208.122 129.662 205.015 128.155 201.643C126.648 198.272 125.521 194.714 124.776 190.969C124.031 187.226 123.658 183.411 123.658 179.527C123.658 175.705 124.022 171.844 124.753 167.945C125.482 164.046 126.561 160.285 127.989 156.665C129.416 153.046 131.201 149.65 133.342 146.481C135.483 143.311 137.974 140.555 140.813 138.208C143.652 135.862 146.833 134.013 150.354 132.662C153.875 131.31 157.746 130.634 161.965 130.634C168.754 130.634 175.131 131.799 181.095 134.13C187.059 136.429 192.23 139.645 196.608 143.778C198.797 145.828 200.764 148.074 202.509 150.513C204.253 152.952 205.729 155.539 206.934 158.273C208.14 161.008 209.068 163.889 209.718 166.92C210.368 169.949 210.694 173.065 210.694 176.264Z" fill="#EB6725"/>
<path fill-rule="evenodd" clip-rule="evenodd" d="M246.48 217.7C243.942 218.196 241.467 218.446 239.057 218.446C236.455 218.446 233.854 218.275 231.253 217.933C228.65 217.591 226.049 217.342 223.448 217.187C222.337 217.187 221.227 216.985 220.117 216.581C218.975 216.178 218.404 215.339 218.404 214.064C218.15 210.149 217.92 206.32 217.714 202.575C217.507 198.831 217.334 195.134 217.19 191.482C217.048 187.832 216.936 184.18 216.857 180.529C216.779 176.878 216.738 173.188 216.738 169.459C216.738 164.488 216.817 159.516 216.976 154.544C217.135 149.573 217.388 144.368 217.738 138.93C217.864 137.625 218.102 136.646 218.451 135.994C218.8 135.341 219.467 134.985 220.45 134.922C222.164 134.86 223.852 134.798 225.518 134.736C227.184 134.673 228.874 134.642 230.587 134.642C232.49 134.642 234.369 134.689 236.225 134.782C238.082 134.875 239.961 135.078 241.864 135.388C242.594 135.388 243.236 135.279 243.791 135.062C244.346 134.845 244.972 134.736 245.671 134.736C247.13 134.736 248.177 135.055 248.812 135.691C249.446 136.328 249.875 137.144 250.097 138.138C250.318 139.133 250.453 140.235 250.501 141.447C250.549 142.659 250.731 143.855 251.048 145.036C254.38 142.302 257.822 140.329 261.374 139.117C264.928 137.904 268.465 137.299 271.986 137.299C274.492 137.299 276.904 137.587 279.219 138.161C281.535 138.736 283.724 139.552 285.787 140.608C287.849 141.665 289.791 142.955 291.616 144.477C293.439 146 295.114 147.693 296.636 149.557C299.713 153.317 302.092 157.699 303.775 162.701C305.456 167.704 306.296 173.048 306.296 178.735C306.296 180.412 306.312 182.052 306.344 183.652C306.375 185.253 306.392 186.891 306.392 188.569C306.392 197.86 306.106 207.026 305.534 216.069C299.094 217.529 292.654 218.26 286.214 218.26C283.74 218.26 281.258 218.135 278.767 217.886C276.277 217.637 273.891 217.187 271.605 216.535V207.259C271.605 203.438 271.542 199.709 271.415 196.073C271.288 192.438 271.226 188.787 271.226 185.12C271.226 183.069 271.018 181.314 270.606 179.853C270.194 178.393 269.623 177.189 268.894 176.241C268.163 175.293 267.283 174.595 266.253 174.144C265.221 173.694 264.087 173.467 262.85 173.467C261.485 173.467 260.105 173.724 258.71 174.237C257.313 174.75 256.045 175.488 254.903 176.451C253.761 177.414 252.832 178.595 252.119 179.993C251.406 181.391 251.048 182.976 251.048 184.747C251.048 189.937 251.032 195.032 251 200.035C250.968 205.038 250.953 210.134 250.953 215.323C250.953 215.882 250.802 216.317 250.501 216.628C250.199 216.938 249.827 217.179 249.383 217.35C248.939 217.521 248.454 217.622 247.932 217.653C247.408 217.684 246.924 217.7 246.48 217.7ZM253.19 200.035C253.19 197.488 253.206 194.94 253.238 192.391C253.269 189.844 253.284 187.295 253.284 184.747C253.284 183.318 253.571 182.044 254.142 180.925C254.713 179.807 255.458 178.859 256.378 178.082C257.298 177.306 258.329 176.715 259.472 176.311C260.613 175.907 261.739 175.705 262.85 175.705H262.898C264.516 175.705 265.736 176.171 266.562 177.103C267.386 178.035 267.981 179.387 268.347 181.158C268.711 182.93 268.917 185.082 268.965 187.614C269.013 190.147 269.084 193.013 269.179 196.213C269.243 198.077 269.305 199.918 269.369 201.736C269.432 203.554 269.465 205.395 269.465 207.259C269.465 208.037 269.448 208.821 269.417 209.613C269.385 210.406 269.369 211.191 269.369 211.967V218.166C272.51 219.005 275.46 219.595 278.22 219.937C280.98 220.279 283.645 220.45 286.214 220.45C289.578 220.45 293.06 220.209 296.66 219.728C300.26 219.245 303.932 218.601 307.677 217.794C307.803 215.525 307.922 213.187 308.033 210.779C308.144 208.371 308.247 205.861 308.342 203.251C308.532 198.094 308.628 193.2 308.628 188.569V184.747C308.628 184.53 308.62 184.321 308.605 184.118C308.588 183.916 308.564 183.722 308.532 183.536V178.735C308.532 174.758 308.128 170.92 307.32 167.222C306.511 163.524 305.345 160.06 303.822 156.828C302.299 153.597 300.45 150.645 298.278 147.973C296.104 145.3 293.662 143.017 290.95 141.121C288.237 139.226 285.287 137.75 282.098 136.693C278.91 135.637 275.539 135.108 271.986 135.108C268.655 135.108 265.412 135.59 262.255 136.553C259.098 137.517 255.949 139.039 252.809 141.121V140.935C252.682 139.785 252.547 138.705 252.405 137.695C252.262 136.686 251.968 135.8 251.525 135.038C251.079 134.277 250.406 133.671 249.502 133.221C248.598 132.771 247.32 132.545 245.671 132.545C244.719 132.545 243.998 132.669 243.506 132.918C243.014 133.166 242.61 133.291 242.292 133.291C240.389 132.98 238.446 132.763 236.463 132.638C234.48 132.514 232.521 132.452 230.587 132.452C228.874 132.452 227.12 132.499 225.328 132.591C223.535 132.684 221.878 132.731 220.355 132.731C218.451 132.856 217.198 133.43 216.596 134.456C215.992 135.481 215.613 136.91 215.454 138.744C215.073 144.182 214.819 149.418 214.692 154.451C214.566 159.485 214.502 164.488 214.502 169.459C214.502 176.855 214.644 184.274 214.931 191.715C215.216 199.158 215.628 206.669 216.168 214.251C216.168 215.898 216.706 217.094 217.785 217.84C218.896 218.616 220.18 219.153 221.64 219.448C223.099 219.743 224.591 219.891 226.113 219.891C226.906 219.891 227.595 219.898 228.183 219.914C228.77 219.929 229.27 219.952 229.682 219.984C231.205 220.17 232.743 220.325 234.298 220.45C235.852 220.574 237.439 220.636 239.057 220.636C241.467 220.636 243.942 220.357 246.48 219.797C247.146 219.797 247.867 219.751 248.645 219.657C249.423 219.565 250.151 219.37 250.834 219.075C251.516 218.779 252.079 218.337 252.524 217.747C252.967 217.156 253.19 216.348 253.19 215.323V200.035ZM255.045 215.323C255.045 216.721 254.791 217.831 254.284 218.656C253.776 219.479 253.126 220.108 252.333 220.543C251.54 220.978 250.66 221.265 249.692 221.405C248.724 221.545 247.78 221.615 246.861 221.615C244.322 222.112 241.721 222.361 239.057 222.361C236.106 222.361 233.338 222.19 230.753 221.848C228.166 221.506 225.732 221.258 223.448 221.102C222.496 221.102 221.498 221.009 220.45 220.823C219.403 220.636 218.435 220.287 217.548 219.774C216.659 219.262 215.913 218.57 215.311 217.7C214.708 216.83 214.375 215.712 214.311 214.344C213.867 207.415 213.486 200.532 213.17 193.696C212.852 186.861 212.693 180.04 212.693 173.235C212.693 172.613 212.701 171.984 212.718 171.347C212.734 170.711 212.741 170.081 212.741 169.459C212.741 164.488 212.804 159.47 212.932 154.405C213.058 149.34 213.328 144.088 213.74 138.65C213.867 136.756 214.145 135.272 214.573 134.199C215.002 133.128 215.794 132.336 216.952 131.823C218.111 131.31 219.768 131 221.926 130.89C224.082 130.782 226.969 130.727 230.587 130.727C232.49 130.727 234.376 130.774 236.25 130.867C238.121 130.96 240.072 131.163 242.102 131.473C242.419 131.473 242.903 131.364 243.554 131.146C244.203 130.929 244.91 130.82 245.671 130.82C247.32 130.82 248.669 131.007 249.716 131.379C250.763 131.753 251.596 132.265 252.214 132.918C252.832 133.57 253.292 134.339 253.594 135.225C253.895 136.11 254.125 137.066 254.284 138.091C257.235 136.413 260.185 135.194 263.136 134.433C266.086 133.671 269.036 133.291 271.986 133.291C275.698 133.291 279.227 133.834 282.574 134.922C285.921 136.01 289.015 137.548 291.854 139.536C294.693 141.525 297.247 143.903 299.515 146.668C301.783 149.433 303.719 152.502 305.321 155.873C306.922 159.245 308.153 162.857 309.008 166.709C309.865 170.563 310.293 174.571 310.293 178.735C310.293 179.947 310.325 181.112 310.389 182.231C310.452 183.349 310.484 184.639 310.484 186.099V188.569C310.484 190.869 310.452 193.339 310.389 195.98C310.325 198.622 310.246 201.293 310.151 203.997C310.055 206.7 309.944 209.365 309.818 211.99C309.69 214.617 309.564 217.063 309.437 219.331C305.312 220.201 301.299 220.893 297.398 221.405C293.496 221.918 289.767 222.174 286.214 222.174C283.613 222.174 280.781 221.965 277.721 221.545C274.659 221.126 271.257 220.45 267.514 219.518V211.967C267.514 211.191 267.529 210.406 267.561 209.613C267.592 208.821 267.608 208.037 267.608 207.259C267.608 204.432 267.545 201.682 267.418 199.01C267.291 196.338 267.228 193.556 267.228 190.667V185.12C267.228 182.417 266.831 180.452 266.038 179.224C265.245 177.997 264.183 177.383 262.85 177.383C261.961 177.383 261.057 177.546 260.138 177.872C259.217 178.198 258.392 178.681 257.663 179.318C256.933 179.954 256.33 180.732 255.855 181.648C255.378 182.565 255.141 183.598 255.141 184.747C255.141 187.295 255.124 189.844 255.093 192.391C255.061 194.94 255.045 197.488 255.045 200.035V215.323Z" fill="#EB6725"/>
<path fill-rule="evenodd" clip-rule="evenodd" d="M350.219 228.281C352.566 228.281 353.74 228.435 353.74 228.746C353.74 228.808 352.962 228.84 351.408 228.84C350.297 228.84 349.06 228.716 347.696 228.467C348.236 228.343 348.727 228.281 349.172 228.281H350.219ZM369.158 230.471C369.158 231.683 368.682 232.785 367.731 233.78C366.779 234.775 365.462 235.622 363.781 236.321C362.099 237.02 360.108 237.555 357.809 237.929C355.508 238.301 353.009 238.488 350.314 238.488C348.949 238.488 347.815 238.442 346.911 238.348C346.008 238.255 345.198 238.13 344.484 237.975C343.77 237.82 343.104 237.626 342.486 237.392C341.867 237.159 341.178 236.918 340.416 236.67V228.84C344.128 230.3 347.792 231.03 351.408 231.03C354.39 231.03 355.882 230.269 355.882 228.746C355.882 226.912 353.994 225.997 350.219 225.997C349.203 225.997 348.204 226.09 347.221 226.276V222.734C343.573 222.05 340.242 220.955 337.228 219.448C334.213 217.941 331.517 216.115 329.138 213.971C326.759 211.827 324.689 209.42 322.928 206.747C321.167 204.075 319.699 201.232 318.526 198.218C317.352 195.204 316.48 192.065 315.91 188.802C315.338 185.539 315.052 182.246 315.052 178.921C315.052 172.893 315.971 167.129 317.812 161.629C319.651 156.067 322.396 151.127 326.045 146.807C329.724 142.489 334.23 139.04 339.56 136.46C344.921 133.85 351.107 132.545 358.118 132.545C361.576 132.545 364.994 132.918 368.373 133.663C371.751 134.409 374.885 135.567 377.772 137.136C380.658 138.705 383.204 140.702 385.409 143.125C387.613 145.549 389.27 148.424 390.382 151.748C389.43 153.302 388.224 154.739 386.765 156.059C385.305 157.38 383.727 158.6 382.03 159.718C380.333 160.837 378.572 161.855 376.748 162.771C374.923 163.688 373.171 164.519 371.49 165.265C370.538 164.861 369.602 164.294 368.682 163.563C367.762 162.833 366.818 162.127 365.851 161.443C364.883 160.759 363.876 160.161 362.829 159.648C361.782 159.135 360.64 158.879 359.403 158.879C357.5 158.879 355.786 159.362 354.263 160.324C352.741 161.287 351.447 162.53 350.386 164.053C349.322 165.576 348.497 167.277 347.911 169.157C347.324 171.037 347.03 172.893 347.03 174.727C347.03 176.218 347.244 177.702 347.673 179.177C348.101 180.654 348.736 181.99 349.576 183.186C350.417 184.382 351.472 185.353 352.741 186.099C354.009 186.844 355.485 187.218 357.166 187.218C358.245 187.218 359.244 187.039 360.164 186.681C361.084 186.325 361.956 185.866 362.782 185.307C363.606 184.747 364.415 184.15 365.209 183.512C366.001 182.876 366.795 182.277 367.587 181.718C371.584 183.955 375.613 186.239 379.675 188.569C383.735 190.9 387.574 193.417 391.19 196.12C390.334 200.066 388.835 203.647 386.693 206.863C384.553 210.079 381.966 212.861 378.937 215.206C375.907 217.552 372.561 219.425 368.896 220.823C365.232 222.221 361.449 223.061 357.548 223.34V223.993C360.846 223.993 363.606 224.567 365.827 225.718C368.047 226.866 369.158 228.452 369.158 230.471ZM371.395 230.471C371.395 228.98 370.99 227.682 370.181 226.58C369.373 225.476 368.253 224.552 366.827 223.807C369.998 222.781 373.028 221.374 375.915 219.588C378.802 217.801 381.419 215.689 383.767 213.249C386.115 210.81 388.129 208.068 389.811 205.022C391.492 201.977 392.729 198.684 393.522 195.141C389.398 192.065 385.139 189.23 380.745 186.635C376.351 184.041 371.902 181.531 367.397 179.108C366.541 179.76 365.7 180.436 364.876 181.135C364.05 181.834 363.217 182.471 362.378 183.046C361.536 183.622 360.688 184.095 359.831 184.468C358.974 184.841 358.086 185.027 357.166 185.027C355.834 185.027 354.675 184.724 353.692 184.118C352.709 183.512 351.885 182.72 351.219 181.741C350.552 180.762 350.06 179.66 349.743 178.432C349.425 177.204 349.267 175.97 349.267 174.727C349.267 173.173 349.497 171.596 349.957 169.996C350.417 168.396 351.083 166.942 351.956 165.637C352.828 164.332 353.89 163.26 355.144 162.421C356.397 161.583 357.816 161.163 359.403 161.163C360.64 161.163 361.789 161.482 362.853 162.118C363.916 162.756 364.97 163.494 366.017 164.332H365.922C366.588 164.83 367.35 165.366 368.207 165.941C369.063 166.516 370.158 167.098 371.49 167.688C373.361 166.849 375.312 165.917 377.343 164.892C379.373 163.866 381.356 162.709 383.291 161.419C385.226 160.13 387.026 158.709 388.692 157.154C390.358 155.601 391.762 153.892 392.903 152.028C391.698 148.268 389.898 145.021 387.502 142.286C385.106 139.552 382.339 137.299 379.198 135.528C376.058 133.757 372.672 132.451 369.039 131.613C365.407 130.774 361.766 130.354 358.118 130.354C350.79 130.354 344.301 131.705 338.655 134.409C333.071 137.082 328.328 140.702 324.427 145.269C320.556 149.806 317.653 154.995 315.718 160.837C313.783 166.616 312.816 172.645 312.816 178.921C312.816 182.308 313.101 185.672 313.672 189.012C314.243 192.352 315.116 195.569 316.289 198.66C317.463 201.753 318.931 204.689 320.691 207.47C322.451 210.251 324.522 212.759 326.902 214.997C329.28 217.234 331.976 219.168 334.991 220.799C338.004 222.431 341.335 223.65 344.984 224.459V227.907C344.032 227.69 342.985 227.387 341.844 226.998C340.701 226.61 339.464 226.151 338.132 225.624V238.208C339.369 238.985 340.892 239.606 342.7 240.073C344.444 240.538 346.983 240.772 350.314 240.772C353.295 240.772 356.072 240.523 358.641 240.026C361.212 239.528 363.439 238.83 365.328 237.929C367.214 237.027 368.698 235.948 369.777 234.69C370.855 233.431 371.395 232.024 371.395 230.471ZM373.156 230.471C373.156 232.305 372.569 233.959 371.395 235.435C370.221 236.91 368.611 238.178 366.565 239.234C364.518 240.289 362.099 241.098 359.308 241.658C356.516 242.217 353.518 242.496 350.314 242.496C347.585 242.496 345.539 242.357 344.176 242.077C342.779 241.797 341.494 241.425 340.32 240.958C340.194 240.927 339.94 240.842 339.56 240.702C339.179 240.562 338.774 240.406 338.346 240.236C337.918 240.065 337.52 239.91 337.156 239.77C336.791 239.63 336.545 239.528 336.419 239.467V223.526C332.136 221.538 328.401 218.951 325.212 215.766C322.024 212.581 319.383 209.023 317.288 205.092C315.195 201.161 313.632 196.959 312.602 192.485C311.57 188.01 311.055 183.489 311.055 178.921C311.055 172.365 312.07 166.104 314.101 160.138C316.13 154.141 319.145 148.781 323.142 144.057C325.141 141.697 327.361 139.583 329.804 137.719C332.247 135.854 334.943 134.208 337.894 132.778C343.762 129.951 350.505 128.537 358.118 128.537C361.956 128.537 365.78 129.003 369.586 129.934C373.393 130.867 376.939 132.312 380.222 134.27C383.505 136.227 386.424 138.698 388.978 141.68C391.531 144.664 393.491 148.206 394.854 152.307C393.491 154.451 391.888 156.385 390.048 158.11C388.209 159.835 386.257 161.396 384.195 162.795C382.133 164.192 380.008 165.451 377.819 166.57C375.629 167.688 373.52 168.729 371.49 169.693C369.904 169.04 368.547 168.317 367.421 167.525C366.295 166.733 365.28 165.995 364.376 165.311C363.471 164.628 362.631 164.053 361.854 163.587C361.076 163.121 360.259 162.887 359.403 162.887C358.101 162.887 356.928 163.245 355.882 163.96C354.835 164.675 353.954 165.591 353.24 166.709C352.526 167.828 351.979 169.094 351.598 170.508C351.219 171.923 351.027 173.328 351.027 174.727C351.027 175.752 351.154 176.77 351.408 177.779C351.662 178.789 352.035 179.698 352.526 180.506C353.018 181.314 353.653 181.967 354.43 182.464C355.207 182.961 356.119 183.21 357.166 183.21C357.958 183.21 358.768 183.008 359.593 182.603C360.418 182.2 361.259 181.679 362.115 181.042C362.972 180.406 363.836 179.721 364.709 178.991C365.581 178.261 366.446 177.569 367.302 176.917C371.776 179.34 376.384 181.951 381.126 184.747C385.868 187.544 390.683 190.76 395.568 194.396C394.775 197.969 393.594 201.302 392.023 204.393C390.453 207.485 388.573 210.297 386.385 212.829C384.195 215.362 381.752 217.599 379.056 219.541C376.359 221.483 373.505 223.091 370.491 224.365C372.266 226.012 373.156 228.048 373.156 230.471Z" fill="#EB6725"/>
<path fill-rule="evenodd" clip-rule="evenodd" d="M837.508 91.3867C844.793 91.3867 850.864 97.2476 850.864 104.281C850.864 111.315 844.793 117.046 837.508 117.046C830.222 117.046 824.286 111.315 824.286 104.281C824.286 97.2476 830.222 91.3867 837.508 91.3867ZM824.016 215.254H851.269V124.079H824.016V215.254Z" fill="#40029A"/>
<path fill-rule="evenodd" clip-rule="evenodd" d="M862.463 195.847L894.168 149.087H863.138V124.079H930.189V143.486L899.025 190.246H930.189V215.254H862.463V195.847Z" fill="#40029A"/>
<path fill-rule="evenodd" clip-rule="evenodd" d="M1038.52 124.079V215.254H1011.27V172.141L998.049 197.019H981.859L968.638 172.141V215.254H941.385V124.079H968.638L989.954 161.2L1011.27 124.079H1038.52Z" fill="#40029A"/>
<path fill-rule="evenodd" clip-rule="evenodd" d="M1067.93 91.3867C1075.22 91.3867 1081.29 97.2476 1081.29 104.281C1081.29 111.315 1075.22 117.046 1067.93 117.046C1060.65 117.046 1054.71 111.315 1054.71 104.281C1054.71 97.2476 1060.65 91.3867 1067.93 91.3867ZM1054.44 215.254H1081.69V124.079H1054.44V215.254Z" fill="#40029A"/>
<path fill-rule="evenodd" clip-rule="evenodd" d="M1124.86 164.978H1136.47C1140.92 164.978 1144.97 161.2 1144.97 155.99C1144.97 150.129 1141.19 147.133 1136.87 147.133H1124.86V164.978ZM1152.66 183.603L1173.97 215.254H1143.08L1128.78 186.729H1124.86V215.254H1097.61V124.079H1136.06C1155.49 124.079 1170.6 135.281 1170.6 155.99C1170.6 169.927 1163.45 179.045 1152.66 183.603Z" fill="#40029A"/>
<path fill-rule="evenodd" clip-rule="evenodd" d="M668.008 169.665H779.324V109.03H668.008V169.665Z" fill="#0971B7"/>
<mask id="mask0_917_642" style="mask-type:alpha" maskUnits="userSpaceOnUse" x="606" y="230" width="63" height="110">
<path fill-rule="evenodd" clip-rule="evenodd" d="M606.102 230.3H668.008V339.33H606.102V230.3Z" fill="white"/>
</mask>
<g mask="url(#mask0_917_642)">
<path fill-rule="evenodd" clip-rule="evenodd" d="M606.102 230.3V339.33H668.008L668.008 230.3H606.102Z" fill="#4CAE50"/>
</g>
<path fill-rule="evenodd" clip-rule="evenodd" d="M544.196 169.666H432.879V230.301L544.196 230.301V169.666Z" fill="#EB6725"/>
<path fill-rule="evenodd" clip-rule="evenodd" d="M544.195 109.03H606.102V0.000517702L544.195 0V109.03Z" fill="#400199"/>
<path fill-rule="evenodd" clip-rule="evenodd" d="M606.102 169.665V36.1545H668.008V169.665H606.102Z" fill="#2BAAE2"/>
<path fill-rule="evenodd" clip-rule="evenodd" d="M606.102 169.665V230.301H742.41V169.665H606.102Z" fill="#8CBF4C"/>
<path fill-rule="evenodd" clip-rule="evenodd" d="M606.066 109.03V169.666L469.758 169.665V109.03H606.066Z" fill="#7D57C6"/>
<path fill-rule="evenodd" clip-rule="evenodd" d="M606.102 169.666V303.175H544.195V169.666H606.102Z" fill="#F5A22B"/>
<path fill-rule="evenodd" clip-rule="evenodd" d="M680.574 109.03H668.008V169.666L680.574 109.03Z" fill="#064E81"/>
<path fill-rule="evenodd" clip-rule="evenodd" d="M668.008 242.609V230.301H606.102L668.008 242.609Z" fill="#347938"/>
<path fill-rule="evenodd" clip-rule="evenodd" d="M531.627 230.3H544.193V169.665L531.627 230.3Z" fill="#A64A1A"/>
<path fill-rule="evenodd" clip-rule="evenodd" d="M544.195 96.7217V109.03H606.102L544.195 96.7217Z" fill="#2B006B"/>
<path d="M514.338 129.9H501.29V149.5H514.338V146.252H504.706V141.044H513.162V137.796H504.706V133.148H514.338V129.9ZM524.058 147.008C521.874 147.008 519.606 145.608 519.578 142.5C519.606 139.392 521.874 137.992 524.058 137.992C526.13 137.992 528.51 139.42 528.51 142.5C528.51 145.58 526.13 147.008 524.058 147.008ZM524.198 156.248C528.342 156.248 531.422 153.672 531.422 149.668V135.5H528.202V137.488C527.026 135.78 524.982 135.108 523.386 135.108C519.27 135.108 516.414 138.216 516.414 142.5C516.414 146.784 519.27 149.892 523.386 149.892C524.982 149.892 527.026 149.248 528.202 147.54V149.612C528.202 152.524 525.71 153.364 524.198 153.364C523.022 153.364 521.146 153.112 520.614 151.348H517.254C517.87 154.596 520.586 156.248 524.198 156.248ZM524.394 131.216C523.246 131.216 522.966 130.152 522.966 129.76H520.082C520.11 131.692 521.454 133.652 524.394 133.652C527.334 133.652 528.706 131.692 528.734 129.76H525.85C525.85 130.152 525.542 131.216 524.394 131.216ZM538.384 135.5H535.164V149.5H538.384V135.5ZM534.996 131.496C534.996 132.504 535.752 133.26 536.76 133.26C537.74 133.26 538.552 132.504 538.552 131.496C538.552 130.516 537.74 129.704 536.76 129.704C535.752 129.704 534.996 130.516 534.996 131.496ZM550.146 146.448C549.53 146.672 548.83 146.812 548.158 146.812C546.786 146.812 545.834 146.112 545.834 144.488V138.384H549.81V135.5H545.834V131.832L542.642 132.336V135.5H540.598V138.384H542.642V144.796C542.642 148.184 544.686 149.724 547.43 149.724C548.382 149.724 549.278 149.584 550.146 149.276V146.448ZM556.267 135.5H553.047V149.5H556.267V135.5ZM552.879 131.496C552.879 132.504 553.635 133.26 554.643 133.26C555.623 133.26 556.435 132.504 556.435 131.496C556.435 130.516 555.623 129.704 554.643 129.704C553.635 129.704 552.879 130.516 552.879 131.496ZM576.261 135.108C574.245 135.108 572.565 136.06 571.473 137.74C570.885 136.312 569.653 135.136 567.413 135.136C565.565 135.136 564.081 135.836 563.241 137.236V135.5H560.021V149.5H563.241V141.632C563.241 139.532 564.501 137.992 566.321 137.992C567.973 137.992 568.953 139.056 568.953 141.072V149.5H572.145V141.492C572.145 139.504 573.405 137.992 575.197 137.992C576.877 137.992 577.885 139.028 577.885 141.072V149.5H581.077V140.064C581.077 137.964 580.153 135.108 576.261 135.108Z" fill="white"/>
<path d="M458.928 194.148C462.148 194.148 465.088 196.276 465.088 200.7C465.088 205.124 462.148 207.252 458.928 207.252H455.288V194.148H458.928ZM458.928 210.5C464.304 210.5 468.448 206.86 468.448 200.7C468.448 194.512 464.304 190.9 458.928 190.9H451.872V210.5H458.928ZM474.584 196.5H471.364V210.5H474.584V196.5ZM471.196 192.496C471.196 193.504 471.952 194.26 472.96 194.26C473.94 194.26 474.752 193.504 474.752 192.496C474.752 191.516 473.94 190.704 472.96 190.704C471.952 190.704 471.196 191.516 471.196 192.496ZM478.282 196.5V210.584C478.282 212.88 476.854 213.44 474.782 213.44V216.324C480.298 216.324 481.502 213.328 481.502 210.612V196.5H478.282ZM478.114 192.496C478.114 193.504 478.87 194.26 479.878 194.26C480.858 194.26 481.67 193.504 481.67 192.496C481.67 191.516 480.858 190.704 479.878 190.704C478.87 190.704 478.114 191.516 478.114 192.496ZM488.42 196.5H485.2V210.5H488.42V196.5ZM485.032 192.496C485.032 193.504 485.788 194.26 486.796 194.26C487.776 194.26 488.588 193.504 488.588 192.496C488.588 191.516 487.776 190.704 486.796 190.704C485.788 190.704 485.032 191.516 485.032 192.496ZM500.182 207.448C499.566 207.672 498.866 207.812 498.194 207.812C496.822 207.812 495.87 207.112 495.87 205.488V199.384H499.846V196.5H495.87V192.832L492.678 193.336V196.5H490.634V199.384H492.678V205.796C492.678 209.184 494.722 210.724 497.466 210.724C498.418 210.724 499.314 210.584 500.182 210.276V207.448ZM509.886 198.992C511.958 198.992 514.338 200.42 514.338 203.5C514.338 206.58 511.958 208.008 509.886 208.008C507.702 208.008 505.434 206.608 505.406 203.5C505.434 200.392 507.702 198.992 509.886 198.992ZM517.25 196.5H514.03V198.46C512.854 196.752 510.81 196.108 509.214 196.108C505.098 196.108 502.242 199.216 502.242 203.5C502.242 207.784 505.098 210.892 509.214 210.892C510.81 210.892 512.854 210.22 514.03 208.512V210.5H517.25V196.5ZM521.049 190.508V210.5H524.269V190.508H521.049Z" fill="white"/>
<path d="M583.8 199.692L575.04 194.604L583.8 189.516V186.588H567V189.516H578.16L571.032 193.668V195.54L578.16 199.692H567V202.62H583.8V199.692ZM568.92 211.343C568.92 209.591 570 208.151 572.16 207.959V217.151C572.472 217.199 572.784 217.223 573.072 217.223C576.792 217.223 579.336 214.871 579.336 211.367C579.336 207.863 576.912 205.247 573 205.247C569.088 205.247 566.664 207.863 566.664 211.367C566.664 213.887 567.816 215.879 570.408 217.055V214.271C569.496 213.647 568.92 212.543 568.92 211.343ZM577.008 211.319C577.008 212.687 576.168 214.343 574.152 214.559V208.007C576.12 208.343 577.008 209.807 577.008 211.319ZM579 219.609H567V222.369H572.784C574.896 222.369 576.36 224.217 576.36 226.905H579.24C579.24 224.793 578.16 223.257 576.72 222.369H579V219.609ZM567 229.077V231.837H572.376L567 236.469V239.949L573 234.597L579 239.949V236.469L573.624 231.837H583.8V229.077H567ZM568.92 246.382C568.92 244.63 570 243.19 572.16 242.998V252.19C572.472 252.238 572.784 252.262 573.072 252.262C576.792 252.262 579.336 249.91 579.336 246.406C579.336 242.902 576.912 240.286 573 240.286C569.088 240.286 566.664 242.902 566.664 246.406C566.664 248.926 567.816 250.918 570.408 252.094V249.31C569.496 248.686 568.92 247.582 568.92 246.382ZM577.008 246.358C577.008 247.726 576.168 249.382 574.152 249.598V243.046C576.12 243.382 577.008 244.846 577.008 246.358ZM567 254.045V263.165H569.496V257.789L577.152 263.045H579V254.285H576.504V259.205L568.848 254.045H567ZM584.136 265.71H567V268.47H584.136V265.71ZM568.92 277.062C568.92 275.31 570 273.87 572.16 273.678V282.87C572.472 282.918 572.784 282.942 573.072 282.942C576.792 282.942 579.336 280.59 579.336 277.086C579.336 273.582 576.912 270.966 573 270.966C569.088 270.966 566.664 273.582 566.664 277.086C566.664 279.606 567.816 281.598 570.408 282.774V279.99C569.496 279.366 568.92 278.262 568.92 277.062ZM577.008 277.038C577.008 278.406 576.168 280.062 574.152 280.278V273.726C576.12 274.062 577.008 275.526 577.008 277.038ZM579 285.327H567V288.087H572.784C574.896 288.087 576.36 289.935 576.36 292.623H579.24C579.24 290.511 578.16 288.975 576.72 288.087H579V285.327Z" fill="white"/>
<path d="M577.084 84.3374V90.7214L568.544 87.5294L577.084 84.3374ZM584 93.3814L580.108 91.8694V83.1894L584 81.6494V78.0094L564.4 85.9054V89.1254L584 97.0494V93.3814ZM580.948 67.8653C581.172 68.4813 581.312 69.1813 581.312 69.8533C581.312 71.2253 580.612 72.1773 578.988 72.1773H572.884V68.2013H570V72.1773H566.332L566.836 75.3693H570V77.4133H572.884V75.3693H579.296C582.684 75.3693 584.224 73.3253 584.224 70.5813C584.224 69.6293 584.084 68.7333 583.776 67.8653H580.948ZM581.312 58.5525C581.312 60.4845 579.996 62.6125 577 62.6125C574.004 62.6125 572.688 60.4845 572.688 58.5525C572.688 56.6205 574.004 54.4925 577 54.4925C579.996 54.4925 581.312 56.6205 581.312 58.5525ZM569.608 58.5525C569.608 62.6405 572.464 65.8045 577 65.8045C581.536 65.8045 584.392 62.6405 584.392 58.5525C584.392 54.4645 581.536 51.3005 577 51.3005C572.464 51.3005 569.608 54.4645 569.608 58.5525ZM566.332 57.6565C567.424 57.6565 568.124 56.9005 568.124 55.8365C568.124 54.8285 567.424 54.0165 566.332 54.0165C565.212 54.0165 564.512 54.8285 564.512 55.8365C564.512 56.9005 565.212 57.6565 566.332 57.6565ZM566.332 63.1165C567.424 63.1165 568.124 62.3325 568.124 61.2965C568.124 60.2885 567.424 59.4765 566.332 59.4765C565.212 59.4765 564.512 60.2885 564.512 61.2965C564.512 62.3325 565.212 63.1165 566.332 63.1165ZM564.008 48.3929H584V45.1729H564.008V48.3929ZM589.32 41.3095C589.32 37.6975 588.004 35.8215 584.028 34.1415L570 28.4015V31.9295L580.08 35.6535L570 39.5175V43.0455L583.636 37.4175C585.988 38.3695 586.548 39.2375 586.548 41.3095H589.32ZM581.76 20.6027C581.76 22.6467 580.5 24.3267 577.98 24.5507V13.8267C577.616 13.7707 577.252 13.7427 576.916 13.7427C572.576 13.7427 569.608 16.4867 569.608 20.5747C569.608 24.6627 572.436 27.7147 577 27.7147C581.564 27.7147 584.392 24.6627 584.392 20.5747C584.392 17.6347 583.048 15.3107 580.024 13.9387V17.1867C581.088 17.9147 581.76 19.2027 581.76 20.6027ZM572.324 20.6307C572.324 19.0347 573.304 17.1027 575.656 16.8507V24.4947C573.36 24.1027 572.324 22.3947 572.324 20.6307Z" fill="white"/>
<path d="M629.984 320.899C629.984 319.411 630.896 318.019 632.816 318.019C634.736 318.019 635.648 319.411 635.648 320.899V324.355H629.984V320.899ZM638.432 320.827C638.432 317.731 636.464 315.115 632.816 315.115C629.168 315.115 627.2 317.707 627.2 320.827V327.283H644V324.355H638.432V320.827ZM632 312.684H644V309.924H638.216C636.104 309.924 634.64 308.076 634.64 305.388H631.76C631.76 307.5 632.84 309.036 634.28 309.924H632V312.684ZM641.696 297.768C641.696 299.424 640.568 301.248 638 301.248C635.432 301.248 634.304 299.424 634.304 297.768C634.304 296.112 635.432 294.288 638 294.288C640.568 294.288 641.696 296.112 641.696 297.768ZM631.664 297.768C631.664 301.272 634.112 303.984 638 303.984C641.888 303.984 644.336 301.272 644.336 297.768C644.336 294.264 641.888 291.552 638 291.552C634.112 291.552 631.664 294.264 631.664 297.768ZM632 289.107H644.072C646.04 289.107 646.52 290.331 646.52 292.107H648.992C648.992 287.379 646.424 286.347 644.096 286.347H632V289.107ZM628.568 289.251C629.432 289.251 630.08 288.603 630.08 287.739C630.08 286.899 629.432 286.203 628.568 286.203C627.728 286.203 627.032 286.899 627.032 287.739C627.032 288.603 627.728 289.251 628.568 289.251ZM642.08 277.802C642.08 279.554 641 280.994 638.84 281.186V271.994C638.528 271.946 638.216 271.922 637.928 271.922C634.208 271.922 631.664 274.274 631.664 277.778C631.664 281.282 634.088 283.898 638 283.898C641.912 283.898 644.336 281.282 644.336 277.778C644.336 275.258 643.184 273.266 640.592 272.09V274.874C641.504 275.498 642.08 276.602 642.08 277.802ZM633.992 277.826C633.992 276.458 634.832 274.802 636.848 274.586V281.138C634.88 280.802 633.992 279.338 633.992 277.826ZM626.864 269.419H644V266.659H626.864V269.419ZM642.08 258.067C642.08 259.819 641 261.259 638.84 261.451V252.259C638.528 252.211 638.216 252.187 637.928 252.187C634.208 252.187 631.664 254.539 631.664 258.043C631.664 261.547 634.088 264.163 638 264.163C641.912 264.163 644.336 261.547 644.336 258.043C644.336 255.523 643.184 253.531 640.592 252.355V255.139C641.504 255.763 642.08 256.867 642.08 258.067ZM633.992 258.091C633.992 256.723 634.832 255.067 636.848 254.851V261.403C634.88 261.067 633.992 259.603 633.992 258.091ZM632 249.802H644V247.042H638.216C636.104 247.042 634.64 245.194 634.64 242.506H631.76C631.76 244.618 632.84 246.154 634.28 247.042H632V249.802Z" fill="white"/>
<path d="M635.842 202.3C635.394 205.324 633.154 207.2 629.822 207.2C625.706 207.2 623.326 204.204 623.326 200.2C623.326 196.196 625.706 193.2 629.822 193.2C632.594 193.2 634.61 194.572 635.338 196.728H638.978C637.914 192.584 634.274 190.008 629.822 190.008C624.194 190.008 619.91 194.04 619.91 200.2C619.91 206.36 624.194 210.392 629.822 210.392C635.422 210.392 639.482 206.276 639.482 200.48C639.482 200.144 639.454 199.808 639.454 199.472H629.962V202.3H635.842ZM648.817 207.312C646.885 207.312 644.757 205.996 644.757 203C644.757 200.004 646.885 198.688 648.817 198.688C650.749 198.688 652.877 200.004 652.877 203C652.877 205.996 650.749 207.312 648.817 207.312ZM648.817 195.608C644.729 195.608 641.565 198.464 641.565 203C641.565 207.536 644.729 210.392 648.817 210.392C652.905 210.392 656.069 207.536 656.069 203C656.069 198.464 652.905 195.608 648.817 195.608ZM649.713 192.332C649.713 193.424 650.469 194.124 651.533 194.124C652.541 194.124 653.353 193.424 653.353 192.332C653.353 191.212 652.541 190.512 651.533 190.512C650.469 190.512 649.713 191.212 649.713 192.332ZM644.253 192.332C644.253 193.424 645.037 194.124 646.073 194.124C647.081 194.124 647.893 193.424 647.893 192.332C647.893 191.212 647.081 190.512 646.073 190.512C645.037 190.512 644.253 191.212 644.253 192.332ZM666.344 195.608C664.356 195.608 662.9 196.448 662.06 197.932V196H658.84V210H662.06V202.44C662.06 200.172 663.348 198.464 665.476 198.464C667.352 198.464 668.444 199.556 668.444 201.572V210H671.664V201.236C671.664 197.428 669.424 195.608 666.344 195.608ZM680.314 210.392C682.33 210.392 683.758 209.552 684.626 208.068V210H687.818V196H684.626V203.56C684.626 205.968 683.31 207.536 681.21 207.536C679.306 207.536 678.214 206.444 678.214 204.428V196H675.022V204.82C675.022 208.656 677.234 210.392 680.314 210.392ZM682.442 192.332C682.442 193.424 683.198 194.124 684.262 194.124C685.27 194.124 686.082 193.424 686.082 192.332C686.082 191.212 685.27 190.512 684.262 190.512C683.198 190.512 682.442 191.212 682.442 192.332ZM676.982 192.332C676.982 193.424 677.766 194.124 678.802 194.124C679.81 194.124 680.622 193.424 680.622 192.332C680.622 191.212 679.81 190.512 678.802 190.512C677.766 190.512 676.982 191.212 676.982 192.332ZM691.625 190.008V210H694.845V190.008H691.625ZM698.652 190.008V210H701.872V190.008H698.652ZM710.747 210.392C712.763 210.392 714.191 209.552 715.059 208.068V210H718.251V196H715.059V203.56C715.059 205.968 713.743 207.536 711.643 207.536C709.739 207.536 708.647 206.444 708.647 204.428V196H705.455V204.82C705.455 208.656 707.667 210.392 710.747 210.392ZM712.875 192.332C712.875 193.424 713.631 194.124 714.695 194.124C715.703 194.124 716.515 193.424 716.515 192.332C716.515 191.212 715.703 190.512 714.695 190.512C713.631 190.512 712.875 191.212 712.875 192.332ZM707.415 192.332C707.415 193.424 708.199 194.124 709.235 194.124C710.243 194.124 711.055 193.424 711.055 192.332C711.055 191.212 710.243 190.512 709.235 190.512C708.199 190.512 707.415 191.212 707.415 192.332Z" fill="white"/>
<path d="M627.818 144.362H647.418V140.946H638.094L647.418 133.554V129.438L637.198 137.726L627.818 129.718V133.778L636.582 140.946H627.818V144.362ZM647.81 122.727C647.81 120.711 646.97 119.283 645.486 118.415H647.418V115.223H633.418V118.415H640.978C643.386 118.415 644.954 119.731 644.954 121.831C644.954 123.735 643.862 124.827 641.846 124.827H633.418V128.019H642.238C646.074 128.019 647.81 125.807 647.81 122.727ZM629.75 120.599C630.842 120.599 631.542 119.843 631.542 118.779C631.542 117.771 630.842 116.959 629.75 116.959C628.63 116.959 627.93 117.771 627.93 118.779C627.93 119.843 628.63 120.599 629.75 120.599ZM629.75 126.059C630.842 126.059 631.542 125.275 631.542 124.239C631.542 123.231 630.842 122.419 629.75 122.419C628.63 122.419 627.93 123.231 627.93 124.239C627.93 125.275 628.63 126.059 629.75 126.059ZM627.426 111.416H647.418V108.196H627.426V111.416ZM644.366 96.381C644.59 96.997 644.73 97.697 644.73 98.369C644.73 99.741 644.03 100.693 642.406 100.693H636.302V96.717H633.418V100.693H629.75L630.254 103.885H633.418V105.929H636.302V103.885H642.714C646.102 103.885 647.642 101.841 647.642 99.097C647.642 98.145 647.502 97.249 647.194 96.381H644.366ZM647.81 88.3561C647.81 86.3401 646.97 84.9121 645.486 84.0441H647.418V80.8521H633.418V84.0441H640.978C643.386 84.0441 644.954 85.3601 644.954 87.4601C644.954 89.3641 643.862 90.4561 641.846 90.4561H633.418V93.6481H642.238C646.074 93.6481 647.81 91.4361 647.81 88.3561ZM629.75 86.2281C630.842 86.2281 631.542 85.4721 631.542 84.4081C631.542 83.4001 630.842 82.5881 629.75 82.5881C628.63 82.5881 627.93 83.4001 627.93 84.4081C627.93 85.4721 628.63 86.2281 629.75 86.2281ZM629.75 91.6881C630.842 91.6881 631.542 90.9041 631.542 89.8681C631.542 88.8601 630.842 88.0481 629.75 88.0481C628.63 88.0481 627.93 88.8601 627.93 89.8681C627.93 90.9041 628.63 91.6881 629.75 91.6881ZM633.418 77.0452H647.418V73.8252H640.67C638.206 73.8252 636.498 71.6692 636.498 68.5332H633.138C633.138 70.9972 634.398 72.7892 636.078 73.8252H633.418V77.0452Z" fill="white"/>
<path d="M682.231 143.914C682.231 148.03 685.899 150.046 689.791 150.046C693.711 150.046 697.127 147.834 697.127 144.082C697.127 136.606 686.263 139.294 686.263 135.346C686.263 133.666 687.803 132.77 689.707 132.77C691.555 132.77 693.179 133.554 693.291 135.43H696.623C696.623 131.51 693.375 129.662 689.707 129.662C685.899 129.662 682.847 131.454 682.847 135.458C682.847 142.514 693.599 139.518 693.599 144.166C693.599 146.042 691.779 146.966 689.763 146.966C687.607 146.966 685.647 145.93 685.563 143.914H682.231ZM706.828 138.146C708.9 138.146 711.28 139.574 711.28 142.654C711.28 145.734 708.9 147.162 706.828 147.162C704.644 147.162 702.376 145.762 702.348 142.654C702.376 139.546 704.644 138.146 706.828 138.146ZM714.192 135.654H710.972V137.614C709.796 135.906 707.752 135.262 706.156 135.262C702.04 135.262 699.184 138.37 699.184 142.654C699.184 146.938 702.04 150.046 706.156 150.046C707.752 150.046 709.796 149.374 710.972 147.666V149.654H714.192V135.654ZM725.494 135.262C723.506 135.262 722.05 136.102 721.21 137.586V135.654H717.99V149.654H721.21V142.094C721.21 139.826 722.498 138.118 724.626 138.118C726.502 138.118 727.594 139.21 727.594 141.226V149.654H730.814V140.89C730.814 137.082 728.574 135.262 725.494 135.262ZM741.418 138.146C743.49 138.146 745.87 139.574 745.87 142.654C745.87 145.734 743.49 147.162 741.418 147.162C739.234 147.162 736.966 145.762 736.938 142.654C736.966 139.546 739.234 138.146 741.418 138.146ZM748.782 135.654H745.562V137.614C744.386 135.906 742.342 135.262 740.746 135.262C736.63 135.262 733.774 138.37 733.774 142.654C733.774 146.938 736.63 150.046 740.746 150.046C742.342 150.046 744.386 149.374 745.562 147.666V149.654H748.782V135.654ZM760.588 146.602C759.972 146.826 759.272 146.966 758.6 146.966C757.228 146.966 756.276 146.266 756.276 144.642V138.538H760.252V135.654H756.276V131.986L753.084 132.49V135.654H751.04V138.538H753.084V144.95C753.084 148.338 755.128 149.878 757.872 149.878C758.824 149.878 759.72 149.738 760.588 149.43V146.602Z" fill="white"/>
</svg>
